# xmcd CD database file
#
# Track frame offsets:
#	150
#	13460
#	30352
#	44345
#	57328
#	68547
#	84539
#	100252
#	112767
#	122960
#	138137
#	153202
#	166169
#
# Disc length: 2426 seconds
#
# Revision: 2
# Processed by: cddbd v1.5.2PL0 Copyright (c) Steve Scherf et al.
# Submitted via: CDex 1.51
#
DISCID=9c09780d
DTITLE=San Marino - A Força do Amor
DYEAR=2006
DGENRE=musicais
TTITLE0=Caixa postal
TTITLE1=Nunca mais vou te enganar
TTITLE2=Preciso te falar
TTITLE3=Coração vagabundo
TTITLE4=Fora de sério
TTITLE5=A dama e o vagabundo
TTITLE6=Nosso amor é elétrico
TTITLE7=Não vou deixar
TTITLE8=O e-mail dela
TTITLE9=Tá com dor de cotovelo
TTITLE10=Ex-namorado
TTITLE11=Vou pedir Perdão a ela
TTITLE12=A força do amor
EXTD=YEAR: 2006
EXTT0=
EXTT1=
EXTT2=
EXTT3=
EXTT4=
EXTT5=
EXTT6=
EXTT7=
EXTT8=
EXTT9=
EXTT10=
EXTT11=
EXTT12=
PLAYORDER=
